<?xml version="1.0" encoding="UTF-8"?>
<!DOCTYPE svg PUBLIC "-//W3C//DTD SVG 1.1//EN" "http://www.w3.org/Graphics/SVG/1.1/DTD/svg11.dtd">
<svg xmlns="http://www.w3.org/2000/svg" version="1.1" width="200px" height="200px" style="shape-rendering:geometricPrecision; text-rendering:geometricPrecision; image-rendering:optimizeQuality; fill-rule:evenodd; clip-rule:evenodd" xmlns:xlink="http://www.w3.org/1999/xlink">
<g><path style="opacity:1" fill="#000000" d="M -0.5,-0.5 C 30.1667,-0.5 60.8333,-0.5 91.5,-0.5C 91.5,20.1667 91.5,40.8333 91.5,61.5C 81.5,61.5 71.5,61.5 61.5,61.5C 61.5,66.5 61.5,71.5 61.5,76.5C 56.1667,76.5 50.8333,76.5 45.5,76.5C 45.5,66.1667 45.5,55.8333 45.5,45.5C 45.5,40.5 45.5,35.5 45.5,30.5C 35.1667,30.5 24.8333,30.5 14.5,30.5C 9.5,30.5 4.5,30.5 -0.5,30.5C -0.5,20.1667 -0.5,9.83333 -0.5,-0.5 Z"/></g>
<g><path style="opacity:1" fill="#e6e694" d="M 91.5,-0.5 C 96.8333,-0.5 102.167,-0.5 107.5,-0.5C 107.5,20.1667 107.5,40.8333 107.5,61.5C 107.5,66.5 107.5,71.5 107.5,76.5C 102.167,76.5 96.8333,76.5 91.5,76.5C 91.5,71.5 91.5,66.5 91.5,61.5C 91.5,40.8333 91.5,20.1667 91.5,-0.5 Z"/></g>
<g><path style="opacity:1" fill="#000000" d="M 107.5,-0.5 C 138.167,-0.5 168.833,-0.5 199.5,-0.5C 199.5,9.83333 199.5,20.1667 199.5,30.5C 189.167,30.5 178.833,30.5 168.5,30.5C 163.5,30.5 158.5,30.5 153.5,30.5C 153.5,45.8333 153.5,61.1667 153.5,76.5C 148.167,76.5 142.833,76.5 137.5,76.5C 137.5,71.5 137.5,66.5 137.5,61.5C 127.5,61.5 117.5,61.5 107.5,61.5C 107.5,40.8333 107.5,20.1667 107.5,-0.5 Z"/></g>
<g><path style="opacity:1" fill="#e69c20" d="M 14.5,30.5 C 24.8333,30.5 35.1667,30.5 45.5,30.5C 45.5,35.5 45.5,40.5 45.5,45.5C 40.5,45.5 35.5,45.5 30.5,45.5C 25.1667,45.5 19.8333,45.5 14.5,45.5C 14.5,40.5 14.5,35.5 14.5,30.5 Z"/></g>
<g><path style="opacity:1" fill="#e69c20" d="M 168.5,30.5 C 178.833,30.5 189.167,30.5 199.5,30.5C 199.5,35.5 199.5,40.5 199.5,45.5C 189.167,45.5 178.833,45.5 168.5,45.5C 168.5,40.5 168.5,35.5 168.5,30.5 Z"/></g>
<g><path style="opacity:1" fill="#e6e694" d="M 30.5,45.5 C 35.5,45.5 40.5,45.5 45.5,45.5C 45.5,55.8333 45.5,66.1667 45.5,76.5C 50.8333,76.5 56.1667,76.5 61.5,76.5C 66.5,76.5 71.5,76.5 76.5,76.5C 76.5,81.5 76.5,86.5 76.5,91.5C 71.5,91.5 66.5,91.5 61.5,91.5C 61.5,112.167 61.5,132.833 61.5,153.5C 56.1667,153.5 50.8333,153.5 45.5,153.5C 45.5,158.5 45.5,163.5 45.5,168.5C 45.5,173.833 45.5,179.167 45.5,184.5C 40.5,184.5 35.5,184.5 30.5,184.5C 30.5,179.167 30.5,173.833 30.5,168.5C 30.5,163.5 30.5,158.5 30.5,153.5C 30.5,148.167 30.5,142.833 30.5,137.5C 30.5,132.5 30.5,127.5 30.5,122.5C 30.5,117.5 30.5,112.5 30.5,107.5C 30.5,102.167 30.5,96.8333 30.5,91.5C 30.5,86.5 30.5,81.5 30.5,76.5C 30.5,71.5 30.5,66.5 30.5,61.5C 30.5,56.1667 30.5,50.8333 30.5,45.5 Z"/></g>
<g><path style="opacity:1" fill="#6a6a00" d="M 168.5,30.5 C 168.5,35.5 168.5,40.5 168.5,45.5C 178.833,45.5 189.167,45.5 199.5,45.5C 199.5,50.8333 199.5,56.1667 199.5,61.5C 189.167,61.5 178.833,61.5 168.5,61.5C 168.5,66.5 168.5,71.5 168.5,76.5C 178.833,76.5 189.167,76.5 199.5,76.5C 199.5,81.5 199.5,86.5 199.5,91.5C 189.167,91.5 178.833,91.5 168.5,91.5C 163.5,91.5 158.5,91.5 153.5,91.5C 153.5,96.8333 153.5,102.167 153.5,107.5C 148.167,107.5 142.833,107.5 137.5,107.5C 137.5,97.1667 137.5,86.8333 137.5,76.5C 142.833,76.5 148.167,76.5 153.5,76.5C 153.5,61.1667 153.5,45.8333 153.5,30.5C 158.5,30.5 163.5,30.5 168.5,30.5 Z"/></g>
<g><path style="opacity:1" fill="#e69c20" d="M 30.5,61.5 C 30.5,66.5 30.5,71.5 30.5,76.5C 25.1667,76.5 19.8333,76.5 14.5,76.5C 14.5,71.5 14.5,66.5 14.5,61.5C 19.8333,61.5 25.1667,61.5 30.5,61.5 Z"/></g>
<g><path style="opacity:1" fill="#6a6a00" d="M 91.5,61.5 C 91.5,66.5 91.5,71.5 91.5,76.5C 86.5,76.5 81.5,76.5 76.5,76.5C 71.5,76.5 66.5,76.5 61.5,76.5C 61.5,71.5 61.5,66.5 61.5,61.5C 71.5,61.5 81.5,61.5 91.5,61.5 Z"/></g>
<g><path style="opacity:1" fill="#6a6a00" d="M 107.5,61.5 C 117.5,61.5 127.5,61.5 137.5,61.5C 137.5,66.5 137.5,71.5 137.5,76.5C 127.5,76.5 117.5,76.5 107.5,76.5C 107.5,71.5 107.5,66.5 107.5,61.5 Z"/></g>
<g><path style="opacity:1" fill="#e69c20" d="M 199.5,61.5 C 199.5,66.5 199.5,71.5 199.5,76.5C 189.167,76.5 178.833,76.5 168.5,76.5C 168.5,71.5 168.5,66.5 168.5,61.5C 178.833,61.5 189.167,61.5 199.5,61.5 Z"/></g>
<g><path style="opacity:1" fill="#e69c20" d="M 76.5,76.5 C 81.5,76.5 86.5,76.5 91.5,76.5C 96.8333,76.5 102.167,76.5 107.5,76.5C 117.5,76.5 127.5,76.5 137.5,76.5C 137.5,86.8333 137.5,97.1667 137.5,107.5C 137.5,122.833 137.5,138.167 137.5,153.5C 132.5,153.5 127.5,153.5 122.5,153.5C 122.5,158.5 122.5,163.5 122.5,168.5C 127.5,168.5 132.5,168.5 137.5,168.5C 137.5,173.833 137.5,179.167 137.5,184.5C 122.167,184.5 106.833,184.5 91.5,184.5C 91.5,179.167 91.5,173.833 91.5,168.5C 86.5,168.5 81.5,168.5 76.5,168.5C 76.5,163.5 76.5,158.5 76.5,153.5C 71.5,153.5 66.5,153.5 61.5,153.5C 61.5,132.833 61.5,112.167 61.5,91.5C 66.5,91.5 71.5,91.5 76.5,91.5C 76.5,86.5 76.5,81.5 76.5,76.5 Z"/></g>
<g><path style="opacity:1" fill="#e69c20" d="M 30.5,91.5 C 30.5,96.8333 30.5,102.167 30.5,107.5C 25.1667,107.5 19.8333,107.5 14.5,107.5C 14.5,102.167 14.5,96.8333 14.5,91.5C 19.8333,91.5 25.1667,91.5 30.5,91.5 Z"/></g>
<g><path style="opacity:1" fill="#e69c20" d="M 168.5,91.5 C 178.833,91.5 189.167,91.5 199.5,91.5C 199.5,96.8333 199.5,102.167 199.5,107.5C 189.167,107.5 178.833,107.5 168.5,107.5C 168.5,102.167 168.5,96.8333 168.5,91.5 Z"/></g>
<g><path style="opacity:1" fill="#e6e694" d="M 91.5,107.5 C 91.5,117.5 91.5,127.5 91.5,137.5C 96.8333,137.5 102.167,137.5 107.5,137.5C 107.5,142.833 107.5,148.167 107.5,153.5C 97.1667,153.5 86.8333,153.5 76.5,153.5C 76.5,138.167 76.5,122.833 76.5,107.5C 81.5,107.5 86.5,107.5 91.5,107.5 Z"/></g>
<g><path style="opacity:1" fill="#6a6a00" d="M 107.5,137.5 C 107.5,127.5 107.5,117.5 107.5,107.5C 102.167,107.5 96.8333,107.5 91.5,107.5C 91.5,102.167 91.5,96.8333 91.5,91.5C 101.833,91.5 112.167,91.5 122.5,91.5C 122.5,106.833 122.5,122.167 122.5,137.5C 117.5,137.5 112.5,137.5 107.5,137.5 Z"/></g>
<g><path style="opacity:1" fill="#6a6a00" d="M -0.5,30.5 C 4.5,30.5 9.5,30.5 14.5,30.5C 14.5,35.5 14.5,40.5 14.5,45.5C 19.8333,45.5 25.1667,45.5 30.5,45.5C 30.5,50.8333 30.5,56.1667 30.5,61.5C 25.1667,61.5 19.8333,61.5 14.5,61.5C 14.5,66.5 14.5,71.5 14.5,76.5C 19.8333,76.5 25.1667,76.5 30.5,76.5C 30.5,81.5 30.5,86.5 30.5,91.5C 25.1667,91.5 19.8333,91.5 14.5,91.5C 14.5,96.8333 14.5,102.167 14.5,107.5C 19.8333,107.5 25.1667,107.5 30.5,107.5C 30.5,112.5 30.5,117.5 30.5,122.5C 25.1667,122.5 19.8333,122.5 14.5,122.5C 14.5,127.5 14.5,132.5 14.5,137.5C 19.8333,137.5 25.1667,137.5 30.5,137.5C 30.5,142.833 30.5,148.167 30.5,153.5C 25.1667,153.5 19.8333,153.5 14.5,153.5C 14.5,158.5 14.5,163.5 14.5,168.5C 19.8333,168.5 25.1667,168.5 30.5,168.5C 30.5,173.833 30.5,179.167 30.5,184.5C 25.1667,184.5 19.8333,184.5 14.5,184.5C 14.5,189.5 14.5,194.5 14.5,199.5C 9.5,199.5 4.5,199.5 -0.5,199.5C -0.5,143.167 -0.5,86.8333 -0.5,30.5 Z"/></g>
<g><path style="opacity:1" fill="#e69d20" d="M 30.5,122.5 C 30.5,127.5 30.5,132.5 30.5,137.5C 25.1667,137.5 19.8333,137.5 14.5,137.5C 14.5,132.5 14.5,127.5 14.5,122.5C 19.8333,122.5 25.1667,122.5 30.5,122.5 Z"/></g>
<g><path style="opacity:1" fill="#e69c20" d="M 91.5,107.5 C 96.8333,107.5 102.167,107.5 107.5,107.5C 107.5,117.5 107.5,127.5 107.5,137.5C 102.167,137.5 96.8333,137.5 91.5,137.5C 91.5,127.5 91.5,117.5 91.5,107.5 Z"/></g>
<g><path style="opacity:1" fill="#6a6a00" d="M 168.5,91.5 C 168.5,96.8333 168.5,102.167 168.5,107.5C 178.833,107.5 189.167,107.5 199.5,107.5C 199.5,112.5 199.5,117.5 199.5,122.5C 189.167,122.5 178.833,122.5 168.5,122.5C 168.5,127.5 168.5,132.5 168.5,137.5C 178.833,137.5 189.167,137.5 199.5,137.5C 199.5,142.833 199.5,148.167 199.5,153.5C 189.167,153.5 178.833,153.5 168.5,153.5C 168.5,158.5 168.5,163.5 168.5,168.5C 178.833,168.5 189.167,168.5 199.5,168.5C 199.5,173.833 199.5,179.167 199.5,184.5C 189.167,184.5 178.833,184.5 168.5,184.5C 163.5,184.5 158.5,184.5 153.5,184.5C 153.5,179.167 153.5,173.833 153.5,168.5C 148.167,168.5 142.833,168.5 137.5,168.5C 132.5,168.5 127.5,168.5 122.5,168.5C 122.5,163.5 122.5,158.5 122.5,153.5C 127.5,153.5 132.5,153.5 137.5,153.5C 137.5,138.167 137.5,122.833 137.5,107.5C 142.833,107.5 148.167,107.5 153.5,107.5C 153.5,102.167 153.5,96.8333 153.5,91.5C 158.5,91.5 163.5,91.5 168.5,91.5 Z"/></g>
<g><path style="opacity:1" fill="#e69c20" d="M 199.5,122.5 C 199.5,127.5 199.5,132.5 199.5,137.5C 189.167,137.5 178.833,137.5 168.5,137.5C 168.5,132.5 168.5,127.5 168.5,122.5C 178.833,122.5 189.167,122.5 199.5,122.5 Z"/></g>
<g><path style="opacity:1" fill="#e59c1f" d="M 30.5,153.5 C 30.5,158.5 30.5,163.5 30.5,168.5C 25.1667,168.5 19.8333,168.5 14.5,168.5C 14.5,163.5 14.5,158.5 14.5,153.5C 19.8333,153.5 25.1667,153.5 30.5,153.5 Z"/></g>
<g><path style="opacity:1" fill="#e69d20" d="M 61.5,153.5 C 61.5,158.5 61.5,163.5 61.5,168.5C 56.1667,168.5 50.8333,168.5 45.5,168.5C 45.5,163.5 45.5,158.5 45.5,153.5C 50.8333,153.5 56.1667,153.5 61.5,153.5 Z"/></g>
<g><path style="opacity:1" fill="#e6e694" d="M 61.5,153.5 C 66.5,153.5 71.5,153.5 76.5,153.5C 76.5,158.5 76.5,163.5 76.5,168.5C 81.5,168.5 86.5,168.5 91.5,168.5C 91.5,173.833 91.5,179.167 91.5,184.5C 81.5,184.5 71.5,184.5 61.5,184.5C 61.5,179.167 61.5,173.833 61.5,168.5C 61.5,163.5 61.5,158.5 61.5,153.5 Z"/></g>
<g><path style="opacity:1" fill="#e69c20" d="M 199.5,153.5 C 199.5,158.5 199.5,163.5 199.5,168.5C 189.167,168.5 178.833,168.5 168.5,168.5C 168.5,163.5 168.5,158.5 168.5,153.5C 178.833,153.5 189.167,153.5 199.5,153.5 Z"/></g>
<g><path style="opacity:1" fill="#000000" d="M 45.5,168.5 C 50.8333,168.5 56.1667,168.5 61.5,168.5C 61.5,173.833 61.5,179.167 61.5,184.5C 71.5,184.5 81.5,184.5 91.5,184.5C 106.833,184.5 122.167,184.5 137.5,184.5C 137.5,179.167 137.5,173.833 137.5,168.5C 142.833,168.5 148.167,168.5 153.5,168.5C 153.5,173.833 153.5,179.167 153.5,184.5C 153.5,189.5 153.5,194.5 153.5,199.5C 117.5,199.5 81.5,199.5 45.5,199.5C 45.5,194.5 45.5,189.5 45.5,184.5C 45.5,179.167 45.5,173.833 45.5,168.5 Z"/></g>
<g><path style="opacity:1" fill="#e79c20" d="M 30.5,184.5 C 35.5,184.5 40.5,184.5 45.5,184.5C 45.5,189.5 45.5,194.5 45.5,199.5C 35.1667,199.5 24.8333,199.5 14.5,199.5C 14.5,194.5 14.5,189.5 14.5,184.5C 19.8333,184.5 25.1667,184.5 30.5,184.5 Z"/></g>
<g><path style="opacity:1" fill="#e7e694" d="M 153.5,184.5 C 158.5,184.5 163.5,184.5 168.5,184.5C 168.5,189.5 168.5,194.5 168.5,199.5C 163.5,199.5 158.5,199.5 153.5,199.5C 153.5,194.5 153.5,189.5 153.5,184.5 Z"/></g>
<g><path style="opacity:1" fill="#e69c1f" d="M 168.5,184.5 C 178.833,184.5 189.167,184.5 199.5,184.5C 199.5,189.5 199.5,194.5 199.5,199.5C 189.167,199.5 178.833,199.5 168.5,199.5C 168.5,194.5 168.5,189.5 168.5,184.5 Z"/></g>
</svg>
